<?xml version="1.0" encoding="UTF-8" standalone="no"?>
<!-- Created with Inkscape (http://www.inkscape.org/) -->

<svg
   xmlns:dc="http://purl.org/dc/elements/1.1/"
   xmlns:cc="http://creativecommons.org/ns#"
   xmlns:rdf="http://www.w3.org/1999/02/22-rdf-syntax-ns#"
   xmlns:svg="http://www.w3.org/2000/svg"
   xmlns="http://www.w3.org/2000/svg"
   xmlns:sodipodi="http://sodipodi.sourceforge.net/DTD/sodipodi-0.dtd"
   xmlns:inkscape="http://www.inkscape.org/namespaces/inkscape"
   width="22"
   height="22"
   viewBox="0 0 5.820833 5.8208335"
   version="1.1"
   id="svg8"
   inkscape:version="0.92.3 (2405546, 2018-03-11)"
   sodipodi:docname="logo.svg"
   inkscape:export-filename="/home/cachapa/Desktop/BeerBot/assets/logo.png"
   inkscape:export-xdpi="2234"
   inkscape:export-ydpi="2234">
  <defs
     id="defs2" />
  <sodipodi:namedview
     id="base"
     pagecolor="#ffffff"
     bordercolor="#666666"
     borderopacity="1.0"
     inkscape:pageopacity="0.0"
     inkscape:pageshadow="2"
     inkscape:zoom="81.919999"
     inkscape:cx="11.378393"
     inkscape:cy="11.776127"
     inkscape:document-units="mm"
     inkscape:current-layer="layer1"
     showgrid="true"
     units="px"
     inkscape:pagecheckerboard="true"
     inkscape:window-width="3840"
     inkscape:window-height="2037"
     inkscape:window-x="0"
     inkscape:window-y="49"
     inkscape:window-maximized="1">
    <inkscape:grid
       type="xygrid"
       id="grid10" />
  </sodipodi:namedview>
  <metadata
     id="metadata5">
    <rdf:RDF>
      <cc:Work
         rdf:about="">
        <dc:format>image/svg+xml</dc:format>
        <dc:type
           rdf:resource="http://purl.org/dc/dcmitype/StillImage" />
        <dc:title />
      </cc:Work>
    </rdf:RDF>
  </metadata>
  <g
     inkscape:label="Layer 1"
     inkscape:groupmode="layer"
     id="layer1"
     transform="translate(0,-291.17915)">
    <rect
       style="fill:#fec30d;fill-opacity:1;stroke-width:0.54994118"
       id="rect34-73-2-6-7-9-6-5-3"
       width="2.3812509"
       height="3.1751711"
       x="1.8520833"
       y="293.03122" />
    <path
       style="fill:#ffffff;fill-opacity:1;stroke-width:0.44721454"
       d="M 6 3 L 6 4 L 6 5 L 5 5 L 5 6 L 5 7 L 6 7 L 12 7 L 12 11 L 13 11 L 13 12 L 14 12 L 14 11 L 18 11 L 18 10 L 18 8 L 19 8 L 19 7 L 19 6 L 18 6 L 18 5 L 18 4 L 16 4 L 16 3 L 6 3 z "
       transform="matrix(0.26458333,0,0,0.26458333,0,291.17915)"
       id="rect34-06" />
    <path
       style="fill:#000000;fill-opacity:1;stroke-width:0.72110486"
       d="M 6 2 L 6 3 L 16 3 L 16 2 L 6 2 z M 16 3 L 16 4 L 17 4 L 18 4 L 18 3 L 17 3 L 16 3 z M 18 4 L 18 5 L 18 6 L 19 6 L 19 5 L 19 4 L 18 4 z M 19 6 L 19 7 L 19 8 L 20 8 L 20 7 L 20 6 L 19 6 z M 19 8 L 18 8 L 18 9 L 18 10 L 19 10 L 19 9 L 19 8 z M 18 10 L 17 10 L 17 9 L 16 9 L 16 10 L 15 10 L 14 10 L 14 11 L 14 12 L 15 12 L 15 11 L 16 11 L 16 19 L 17 19 L 17 11 L 18 11 L 18 10 z M 16 19 L 7 19 L 7 20 L 16 20 L 16 19 z M 7 19 L 7 7 L 11 7 L 11 8 L 12 8 L 12 7 L 12 6 L 11 6 L 11 5 L 10 5 L 10 6 L 7 6 L 6 6 L 6 7 L 5 7 L 5 8 L 3 8 L 3 9 L 6 9 L 6 10 L 4 10 L 4 11 L 4 15 L 4 16 L 6 16 L 6 17 L 3 17 L 3 18 L 6 18 L 6 19 L 7 19 z M 3 17 L 3 9 L 2 9 L 2 17 L 3 17 z M 5 7 L 5 5 L 4 5 L 4 7 L 5 7 z M 5 5 L 6 5 L 6 4 L 6 3 L 5 3 L 5 4 L 5 5 z M 12 8 L 12 12 L 13 12 L 13 8 L 12 8 z M 13 12 L 13 13 L 14 13 L 14 12 L 13 12 z M 16 9 L 16 8 L 15 8 L 15 9 L 16 9 z M 16 4 L 15 4 L 15 5 L 16 5 L 16 4 z M 5 11 L 6 11 L 6 15 L 5 15 L 5 11 z "
       transform="matrix(0.26458333,0,0,0.26458333,0,291.17915)"
       id="rect34-3" />
    <rect
       style="fill:#dbdbdb;fill-opacity:1;stroke-width:0.05291667"
       id="rect34-32-06"
       width="0.26458332"
       height="0.26458332"
       x="3.175"
       y="293.03125" />
    <rect
       style="fill:#dbdbdb;fill-opacity:1;stroke-width:0.05291667"
       id="rect34-32-06-9"
       width="0.26458332"
       height="0.26458332"
       x="3.4395831"
       y="293.03125" />
    <rect
       style="fill:#dbdbdb;fill-opacity:1;stroke-width:0.05291667"
       id="rect34-32-06-2"
       width="0.26458332"
       height="0.26458332"
       x="3.4395831"
       y="293.29584" />
    <rect
       style="fill:#dbdbdb;fill-opacity:1;stroke-width:0.05291667"
       id="rect34-32-06-6"
       width="0.26458332"
       height="0.26458332"
       x="3.4395831"
       y="293.56042" />
    <rect
       style="fill:#dbdbdb;fill-opacity:1;stroke-width:0.05291667"
       id="rect34-32-06-64"
       width="0.26458332"
       height="0.26458332"
       x="3.9687498"
       y="293.56042" />
    <rect
       style="fill:#dbdbdb;fill-opacity:1;stroke-width:0.05291667"
       id="rect34-32-06-95"
       width="0.26458332"
       height="0.26458332"
       x="4.4979167"
       y="293.03125" />
    <rect
       style="fill:#dbdbdb;fill-opacity:1;stroke-width:0.05291667"
       id="rect34-32-06-0"
       width="0.26458332"
       height="0.26458332"
       x="3.7041667"
       y="292.23752" />
    <rect
       style="fill:#dbdbdb;fill-opacity:1;stroke-width:0.05291667"
       id="rect34-32-06-4"
       width="0.26458332"
       height="0.26458332"
       x="2.3812499"
       y="292.23752" />
    <rect
       style="fill:#dbdbdb;fill-opacity:1;stroke-width:0.05291667"
       id="rect34-32-06-8"
       width="0.26458332"
       height="0.26458332"
       x="2.3812499"
       y="292.50208" />
    <path
       style="fill:#ffffff;fill-opacity:1;stroke-width:0.34638146"
       d="M 3 9 L 3 10 L 3 17 L 4 17 L 5 17 L 6 17 L 6 16 L 5 16 L 4 16 L 4 10 L 6 10 L 6 9 L 3 9 z "
       transform="matrix(0.26458333,0,0,0.26458333,0,291.17915)"
       id="rect34-73-2-6-7" />
    <path
       style="fill:#c5890d;fill-opacity:1;stroke-width:0.19998346"
       d="M 15 11 L 15 16 L 14 16 L 14 17 L 8 17 L 8 16 L 7 16 L 7 17 L 7 19 L 16 19 L 16 17 L 16 11 L 15 11 z "
       transform="matrix(0.26458333,0,0,0.26458333,0,291.17915)"
       id="rect34-73-2-6-7-9" />
    <rect
       style="fill:#fcdb70;fill-opacity:1;stroke-width:0.05291229"
       id="rect34-73-2-6-7-9-6"
       width="0.26458332"
       height="0.26453948"
       x="2.6458333"
       y="293.56042" />
    <rect
       style="fill:#fcdb70;fill-opacity:1;stroke-width:0.05291229"
       id="rect34-73-2-6-7-9-6-5"
       width="0.26458332"
       height="0.26453948"
       x="2.1166666"
       y="293.82501" />
    <rect
       style="fill:#fcdb70;fill-opacity:1;stroke-width:0.05291229"
       id="rect34-73-2-6-7-9-6-6"
       width="0.26458332"
       height="0.26453948"
       x="2.3812499"
       y="294.0896" />
    <rect
       style="fill:#fcdb70;fill-opacity:1;stroke-width:0.05291229"
       id="rect34-73-2-6-7-9-6-3"
       width="0.26458332"
       height="0.26453948"
       x="2.1166666"
       y="294.88336" />
    <rect
       style="fill:#fcdb70;fill-opacity:1;stroke-width:0.05291229"
       id="rect34-73-2-6-7-9-6-9"
       width="0.26458332"
       height="0.26453948"
       x="2.9104166"
       y="295.14792" />
  </g>
</svg>
